{
	"nodes":[{
		"name":"立方体",
		"mesh":0
	},
	{
		"name":"立方体.65",
		"translation":[4.921999931335449,
		2.0299999713897707,
		-4.51800012588501],
		"rotation":[0.0,
		-1.0,
		0.0,
		-6.123234262925839e-17],
		"children":[2,
		3,
		4,
		5,
		6],
		"scale":[1.0,
		1.0,
		1.0]
	},
	{
		"name":"立方体.65-材质.1",
		"mesh":1
	},
	{
		"name":"立方体.65-材质.1",
		"mesh":2
	},
	{
		"name":"立方体.65-材质.1",
		"mesh":3
	},
	{
		"name":"立方体.65-材质.1",
		"mesh":4
	},
	{
		"name":"立方体.65-材质.2",
		"mesh":5
	},
	{
		"name":"布尔",
		"translation":[-26.2989559173584,
		2.9090919494628908,
		10.373028755187989],
		"rotation":[0.0,
		-1.0,
		0.0,
		-6.123234262925839e-17],
		"children":[8,
		9,
		10],
		"scale":[1.0,
		1.0,
		1.0]
	},
	{
		"name":"布尔",
		"mesh":6
	},
	{
		"name":"布尔-材质",
		"mesh":7
	},
	{
		"name":"布尔-材质",
		"mesh":8
	},
	{
		"name":"立方体.63",
		"translation":[-77.55858612060547,
		2.1689131259918215,
		21.265560150146486],
		"rotation":[0.0,
		-1.0,
		0.0,
		-6.123234262925839e-17],
		"children":[12,
		13,
		14],
		"scale":[1.0,
		1.0,
		1.0]
	},
	{
		"name":"立方体.63-材质.1",
		"mesh":9
	},
	{
		"name":"立方体.63-材质.1",
		"mesh":10
	},
	{
		"name":"立方体.63-材质.1",
		"mesh":11
	},
	{
		"name":"立方体.29",
		"translation":[-77.53965759277344,
		2.416010856628418,
		19.868383407592775],
		"rotation":[0.0,
		-1.0,
		0.0,
		-6.123234262925839e-17],
		"scale":[1.0,
		1.0,
		1.0],
		"mesh":12
	},
	{
		"name":"布尔.1",
		"translation":[-52.344120025634769,
		2.992173433303833,
		15.050944328308106],
		"rotation":[0.0,
		-1.0,
		0.0,
		-6.123234262925839e-17],
		"children":[17,
		18,
		19],
		"scale":[1.0,
		1.0,
		1.0]
	},
	{
		"name":"布尔.1",
		"mesh":13
	},
	{
		"name":"布尔.1-材质",
		"mesh":14
	},
	{
		"name":"布尔.1-材质",
		"mesh":15
	}],
	"asset":{
		"version":"2.0",
		"generator":"Created using the official Cinema 4D glTF Exporter 1.000x284978"
	},
	"scenes":[{
		"nodes":[0,
		1,
		7,
		11,
		15,
		16]
	}],
	"materials":[{
		"pbrMetallicRoughness":{
			"baseColorFactor":[0.5624715219976215,
			0.6872413793103449,
			0.3993109393579071,
			1.0],
			"metallicFactor":0.0,
			"roughnessFactor":0.5
		},
		"emissiveFactor":[0.0,
		0.0,
		0.0],
		"alphaMode":"OPAQUE",
		"doubleSided":false,
		"name":"材质.1"
	},
	{
		"pbrMetallicRoughness":{
			"baseColorFactor":[0.5624715219976215,
			0.6872413793103449,
			0.3993109393579071,
			1.0],
			"metallicFactor":0.0,
			"roughnessFactor":0.5
		},
		"emissiveFactor":[0.0,
		0.0,
		0.0],
		"alphaMode":"OPAQUE",
		"doubleSided":false,
		"name":"材质.1"
	},
	{
		"pbrMetallicRoughness":{
			"baseColorFactor":[0.5624715219976215,
			0.6872413793103449,
			0.3993109393579071,
			1.0],
			"metallicFactor":0.0,
			"roughnessFactor":0.5
		},
		"emissiveFactor":[0.0,
		0.0,
		0.0],
		"alphaMode":"OPAQUE",
		"doubleSided":false,
		"name":"材质.1"
	},
	{
		"pbrMetallicRoughness":{
			"baseColorFactor":[0.5624715219976215,
			0.6872413793103449,
			0.3993109393579071,
			1.0],
			"metallicFactor":0.0,
			"roughnessFactor":0.5
		},
		"emissiveFactor":[0.0,
		0.0,
		0.0],
		"alphaMode":"OPAQUE",
		"doubleSided":false,
		"name":"材质.1"
	},
	{
		"pbrMetallicRoughness":{
			"baseColorFactor":[0.6858600000000003,
			0.6900000000000001,
			0.44160000000000007,
			1.0],
			"metallicFactor":0.0,
			"roughnessFactor":0.5
		},
		"emissiveFactor":[0.0,
		0.0,
		0.0],
		"alphaMode":"OPAQUE",
		"doubleSided":false,
		"name":"材质.2"
	},
	{
		"pbrMetallicRoughness":{
			"baseColorFactor":[0.9241379310344827,
			0.9241379310344827,
			0.9241379310344827,
			1.0],
			"metallicFactor":0.0,
			"roughnessFactor":0.5
		},
		"emissiveFactor":[0.0,
		0.0,
		0.0],
		"alphaMode":"OPAQUE",
		"doubleSided":false,
		"name":"材质"
	},
	{
		"pbrMetallicRoughness":{
			"baseColorFactor":[0.5624715219976215,
			0.6872413793103449,
			0.3993109393579071,
			1.0],
			"metallicFactor":0.0,
			"roughnessFactor":0.5
		},
		"emissiveFactor":[0.0,
		0.0,
		0.0],
		"alphaMode":"OPAQUE",
		"doubleSided":false,
		"name":"材质.1"
	},
	{
		"pbrMetallicRoughness":{
			"baseColorFactor":[0.5624715219976215,
			0.6872413793103449,
			0.3993109393579071,
			1.0],
			"metallicFactor":0.0,
			"roughnessFactor":0.5
		},
		"emissiveFactor":[0.0,
		0.0,
		0.0],
		"alphaMode":"OPAQUE",
		"doubleSided":false,
		"name":"材质.1"
	}],
	"meshes":[{
		"name":"立方体",
		"primitives":[{
			"attributes":{
				"POSITION":1,
				"NORMAL":2,
				"TEXCOORD_0":3
			},
			"indices":0
		}]
	},
	{
		"name":"立方体.65-材质.1",
		"primitives":[{
			"attributes":{
				"POSITION":5,
				"NORMAL":6,
				"TEXCOORD_0":7
			},
			"indices":4,
			"material":0
		}]
	},
	{
		"name":"立方体.65-材质.1",
		"primitives":[{
			"attributes":{
				"POSITION":9,
				"NORMAL":10,
				"TEXCOORD_0":11
			},
			"indices":8,
			"material":1
		}]
	},
	{
		"name":"立方体.65-材质.1",
		"primitives":[{
			"attributes":{
				"POSITION":13,
				"NORMAL":14,
				"TEXCOORD_0":15
			},
			"indices":12,
			"material":2
		}]
	},
	{
		"name":"立方体.65-材质.1",
		"primitives":[{
			"attributes":{
				"POSITION":17,
				"NORMAL":18,
				"TEXCOORD_0":19
			},
			"indices":16,
			"material":3
		}]
	},
	{
		"name":"立方体.65-材质.2",
		"primitives":[{
			"attributes":{
				"POSITION":21,
				"NORMAL":22,
				"TEXCOORD_0":23
			},
			"indices":20,
			"material":4
		}]
	},
	{
		"name":"布尔",
		"primitives":[{
			"attributes":{
				"POSITION":25,
				"NORMAL":26,
				"TEXCOORD_0":27
			},
			"indices":24
		}]
	},
	{
		"name":"布尔-材质",
		"primitives":[{
			"attributes":{
				"POSITION":29,
				"NORMAL":30,
				"TEXCOORD_0":31
			},
			"indices":28,
			"material":5
		}]
	},
	{
		"name":"布尔-材质",
		"primitives":[{
			"attributes":{
				"POSITION":33,
				"NORMAL":34,
				"TEXCOORD_0":35
			},
			"indices":32,
			"material":5
		}]
	},
	{
		"name":"立方体.63-材质.1",
		"primitives":[{
			"attributes":{
				"POSITION":37,
				"NORMAL":38,
				"TEXCOORD_0":39
			},
			"indices":36,
			"material":0
		}]
	},
	{
		"name":"立方体.63-材质.1",
		"primitives":[{
			"attributes":{
				"POSITION":41,
				"NORMAL":42,
				"TEXCOORD_0":43
			},
			"indices":40,
			"material":6
		}]
	},
	{
		"name":"立方体.63-材质.1",
		"primitives":[{
			"attributes":{
				"POSITION":45,
				"NORMAL":46,
				"TEXCOORD_0":47
			},
			"indices":44,
			"material":7
		}]
	},
	{
		"name":"立方体.29",
		"primitives":[{
			"attributes":{
				"POSITION":49,
				"NORMAL":50,
				"TEXCOORD_0":51
			},
			"indices":48,
			"material":5
		}]
	},
	{
		"name":"布尔.1",
		"primitives":[{
			"attributes":{
				"POSITION":53,
				"NORMAL":54,
				"TEXCOORD_0":55
			},
			"indices":52
		}]
	},
	{
		"name":"布尔.1-材质",
		"primitives":[{
			"attributes":{
				"POSITION":57,
				"NORMAL":58,
				"TEXCOORD_0":59
			},
			"indices":56,
			"material":5
		}]
	},
	{
		"name":"布尔.1-材质",
		"primitives":[{
			"attributes":{
				"POSITION":61,
				"NORMAL":62,
				"TEXCOORD_0":63
			},
			"indices":60,
			"material":5
		}]
	}],
	"accessors":[{
		"bufferView":0,
		"type":"SCALAR",
		"componentType":5123,
		"count":36,
		"byteOffset":0,
		"min":[0],
		"max":[23]
	},
	{
		"bufferView":1,
		"type":"VEC3",
		"componentType":5126,
		"count":24,
		"byteOffset":0,
		"min":[-0.5,
		-0.5,
		-0.5],
		"max":[0.5,
		0.5,
		0.5]
	},
	{
		"bufferView":1,
		"type":"VEC3",
		"componentType":5126,
		"count":24,
		"byteOffset":12,
		"min":[-1.0,
		-1.0,
		-1.0],
		"max":[1.0,
		1.0,
		1.0]
	},
	{
		"bufferView":1,
		"type":"VEC2",
		"componentType":5126,
		"count":24,
		"byteOffset":24,
		"min":[0.0,
		0.0],
		"max":[1.0,
		1.0]
	},
	{
		"bufferView":2,
		"type":"SCALAR",
		"componentType":5123,
		"count":36,
		"byteOffset":0,
		"min":[0],
		"max":[23]
	},
	{
		"bufferView":3,
		"type":"VEC3",
		"componentType":5126,
		"count":24,
		"byteOffset":0,
		"min":[-123.2227554321289,
		-1.2280631065368653,
		0.0012206764658913017],
		"max":[-0.0015115212881937624,
		-0.8858208656311035,
		35.11049270629883]
	},
	{
		"bufferView":3,
		"type":"VEC3",
		"componentType":5126,
		"count":24,
		"byteOffset":12,
		"min":[-1.0,
		-1.0,
		-1.0],
		"max":[1.0,
		1.0,
		1.0]
	},
	{
		"bufferView":3,
		"type":"VEC2",
		"componentType":5126,
		"count":24,
		"byteOffset":24,
		"min":[0.0,
		0.0],
		"max":[1.0,
		1.0]
	},
	{
		"bufferView":4,
		"type":"SCALAR",
		"componentType":5123,
		"count":36,
		"byteOffset":0,
		"min":[0],
		"max":[23]
	},
	{
		"bufferView":5,
		"type":"VEC3",
		"componentType":5126,
		"count":24,
		"byteOffset":0,
		"min":[-123.02090454101563,
		-1.2280631065368653,
		33.13467788696289],
		"max":[-99.20526885986328,
		-0.8858208656311035,
		71.02947998046875]
	},
	{
		"bufferView":5,
		"type":"VEC3",
		"componentType":5126,
		"count":24,
		"byteOffset":12,
		"min":[-1.0,
		-1.0,
		-1.0],
		"max":[1.0,
		1.0,
		1.0]
	},
	{
		"bufferView":5,
		"type":"VEC2",
		"componentType":5126,
		"count":24,
		"byteOffset":24,
		"min":[0.0,
		0.0],
		"max":[1.0,
		1.0]
	},
	{
		"bufferView":6,
		"type":"SCALAR",
		"componentType":5123,
		"count":36,
		"byteOffset":0,
		"min":[0],
		"max":[23]
	},
	{
		"bufferView":7,
		"type":"VEC3",
		"componentType":5126,
		"count":24,
		"byteOffset":0,
		"min":[-305.0730285644531,
		-1.2280631065368653,
		33.956016540527347],
		"max":[-134.2436981201172,
		-0.8858208656311035,
		71.58872985839844]
	},
	{
		"bufferView":7,
		"type":"VEC3",
		"componentType":5126,
		"count":24,
		"byteOffset":12,
		"min":[-1.0,
		-1.0,
		-1.0],
		"max":[1.0,
		1.0,
		1.0]
	},
	{
		"bufferView":7,
		"type":"VEC2",
		"componentType":5126,
		"count":24,
		"byteOffset":24,
		"min":[0.0,
		0.0],
		"max":[1.0,
		1.0]
	},
	{
		"bufferView":8,
		"type":"SCALAR",
		"componentType":5123,
		"count":36,
		"byteOffset":0,
		"min":[0],
		"max":[23]
	},
	{
		"bufferView":9,
		"type":"VEC3",
		"componentType":5126,
		"count":24,
		"byteOffset":0,
		"min":[-167.1544189453125,
		-1.2280631065368653,
		26.48826026916504],
		"max":[-134.545166015625,
		-0.8858208656311035,
		34.5971565246582]
	},
	{
		"bufferView":9,
		"type":"VEC3",
		"componentType":5126,
		"count":24,
		"byteOffset":12,
		"min":[-1.0,
		-1.0,
		-1.0],
		"max":[1.0,
		1.0,
		1.0]
	},
	{
		"bufferView":9,
		"type":"VEC2",
		"componentType":5126,
		"count":24,
		"byteOffset":24,
		"min":[0.0,
		0.0],
		"max":[1.0,
		1.0]
	},
	{
		"bufferView":10,
		"type":"SCALAR",
		"componentType":5123,
		"count":36,
		"byteOffset":0,
		"min":[0],
		"max":[23]
	},
	{
		"bufferView":11,
		"type":"VEC3",
		"componentType":5126,
		"count":24,
		"byteOffset":0,
		"min":[-134.5796661376953,
		-1.2280631065368653,
		26.089122772216798],
		"max":[-122.81663513183594,
		-0.8858208656311035,
		71.59378051757813]
	},
	{
		"bufferView":11,
		"type":"VEC3",
		"componentType":5126,
		"count":24,
		"byteOffset":12,
		"min":[-1.0,
		-1.0,
		-1.0],
		"max":[1.0,
		1.0,
		1.0]
	},
	{
		"bufferView":11,
		"type":"VEC2",
		"componentType":5126,
		"count":24,
		"byteOffset":24,
		"min":[0.0,
		0.0],
		"max":[1.0,
		1.0]
	},
	{
		"bufferView":12,
		"type":"SCALAR",
		"componentType":5123,
		"count":36,
		"byteOffset":0,
		"min":[0],
		"max":[17]
	},
	{
		"bufferView":13,
		"type":"VEC3",
		"componentType":5126,
		"count":18,
		"byteOffset":0,
		"min":[-154.64588928222657,
		-1.9916843175888062,
		61.882511138916019],
		"max":[-153.57626342773438,
		1.629451036453247,
		65.79450988769531]
	},
	{
		"bufferView":13,
		"type":"VEC3",
		"componentType":5126,
		"count":18,
		"byteOffset":12,
		"min":[0.0,
		-1.0,
		-1.0],
		"max":[0.0,
		0.0,
		1.0]
	},
	{
		"bufferView":13,
		"type":"VEC2",
		"componentType":5126,
		"count":18,
		"byteOffset":24,
		"min":[0.20949295163154603,
		0.0],
		"max":[0.7921146750450134,
		1.0]
	},
	{
		"bufferView":14,
		"type":"SCALAR",
		"componentType":5123,
		"count":78,
		"byteOffset":0,
		"min":[0],
		"max":[37]
	},
	{
		"bufferView":15,
		"type":"VEC3",
		"componentType":5126,
		"count":38,
		"byteOffset":0,
		"min":[-154.65362548828126,
		-1.9916712045669556,
		43.83750915527344],
		"max":[-134.68052673339845,
		2.0726189613342287,
		50.1114387512207]
	},
	{
		"bufferView":15,
		"type":"VEC3",
		"componentType":5126,
		"count":38,
		"byteOffset":12,
		"min":[-1.0,
		-1.0,
		-1.0],
		"max":[1.0,
		0.0,
		1.0]
	},
	{
		"bufferView":15,
		"type":"VEC2",
		"componentType":5126,
		"count":38,
		"byteOffset":24,
		"min":[0.0,
		0.0],
		"max":[1.0,
		1.0]
	},
	{
		"bufferView":16,
		"type":"SCALAR",
		"componentType":5123,
		"count":384,
		"byteOffset":0,
		"min":[0],
		"max":[162]
	},
	{
		"bufferView":17,
		"type":"VEC3",
		"componentType":5126,
		"count":163,
		"byteOffset":0,
		"min":[-154.65603637695313,
		-1.994396686553955,
		14.154000282287598],
		"max":[-30.85772705078125,
		6.884653568267822,
		86.62850952148438]
	},
	{
		"bufferView":17,
		"type":"VEC3",
		"componentType":5126,
		"count":163,
		"byteOffset":12,
		"min":[-1.0,
		-1.0,
		-1.0],
		"max":[1.0,
		1.0,
		1.0]
	},
	{
		"bufferView":17,
		"type":"VEC2",
		"componentType":5126,
		"count":163,
		"byteOffset":24,
		"min":[0.0,
		0.0],
		"max":[1.0,
		1.0]
	},
	{
		"bufferView":18,
		"type":"SCALAR",
		"componentType":5123,
		"count":36,
		"byteOffset":0,
		"min":[0],
		"max":[23]
	},
	{
		"bufferView":19,
		"type":"VEC3",
		"componentType":5126,
		"count":24,
		"byteOffset":0,
		"min":[-205.62313842773438,
		-1.3046314716339112,
		26.089445114135743],
		"max":[-83.11071014404297,
		-0.3046315014362335,
		26.209415435791017]
	},
	{
		"bufferView":19,
		"type":"VEC3",
		"componentType":5126,
		"count":24,
		"byteOffset":12,
		"min":[-1.0,
		-1.0,
		-1.0],
		"max":[1.0,
		1.0,
		1.0]
	},
	{
		"bufferView":19,
		"type":"VEC2",
		"componentType":5126,
		"count":24,
		"byteOffset":24,
		"min":[0.0,
		0.0],
		"max":[1.0,
		1.0]
	},
	{
		"bufferView":20,
		"type":"SCALAR",
		"componentType":5123,
		"count":72,
		"byteOffset":0,
		"min":[0],
		"max":[47]
	},
	{
		"bufferView":21,
		"type":"VEC3",
		"componentType":5126,
		"count":48,
		"byteOffset":0,
		"min":[-204.97300720214845,
		-1.3046314716339112,
		60.37342071533203],
		"max":[-83.02014923095703,
		-0.3037901520729065,
		61.051448822021487]
	},
	{
		"bufferView":21,
		"type":"VEC3",
		"componentType":5126,
		"count":48,
		"byteOffset":12,
		"min":[-1.0,
		-1.0,
		-1.0],
		"max":[1.0,
		1.0,
		1.0]
	},
	{
		"bufferView":21,
		"type":"VEC2",
		"componentType":5126,
		"count":48,
		"byteOffset":24,
		"min":[0.0,
		0.0],
		"max":[1.0,
		1.0]
	},
	{
		"bufferView":22,
		"type":"SCALAR",
		"componentType":5123,
		"count":1134,
		"byteOffset":0,
		"min":[0],
		"max":[755]
	},
	{
		"bufferView":23,
		"type":"VEC3",
		"componentType":5126,
		"count":756,
		"byteOffset":0,
		"min":[-388.22509765625,
		-1.308091163635254,
		26.004634857177736],
		"max":[-83.12260437011719,
		-0.30117177963256838,
		96.94770050048828]
	},
	{
		"bufferView":23,
		"type":"VEC3",
		"componentType":5126,
		"count":756,
		"byteOffset":12,
		"min":[-1.0,
		-1.0,
		-1.0],
		"max":[1.0,
		1.0,
		1.0]
	},
	{
		"bufferView":23,
		"type":"VEC2",
		"componentType":5126,
		"count":756,
		"byteOffset":24,
		"min":[0.0,
		0.0],
		"max":[1.0,
		1.0]
	},
	{
		"bufferView":24,
		"type":"SCALAR",
		"componentType":5123,
		"count":324,
		"byteOffset":0,
		"min":[0],
		"max":[215]
	},
	{
		"bufferView":25,
		"type":"VEC3",
		"componentType":5126,
		"count":216,
		"byteOffset":0,
		"min":[-245.89437866210938,
		-1.556396722793579,
		55.819149017333987],
		"max":[-225.11294555664063,
		0.4436033070087433,
		58.819149017333987]
	},
	{
		"bufferView":25,
		"type":"VEC3",
		"componentType":5126,
		"count":216,
		"byteOffset":12,
		"min":[-1.0,
		-1.0,
		-1.0],
		"max":[1.0,
		1.0,
		1.0]
	},
	{
		"bufferView":25,
		"type":"VEC2",
		"componentType":5126,
		"count":216,
		"byteOffset":24,
		"min":[0.0,
		0.0],
		"max":[1.0,
		1.0]
	},
	{
		"bufferView":26,
		"type":"SCALAR",
		"componentType":5123,
		"count":156,
		"byteOffset":0,
		"min":[0],
		"max":[87]
	},
	{
		"bufferView":27,
		"type":"VEC3",
		"componentType":5126,
		"count":88,
		"byteOffset":0,
		"min":[-339.33599853515627,
		-2.1308534145355226,
		48.809425354003909],
		"max":[-192.15870666503907,
		2.6154122352600099,
		91.30821990966797]
	},
	{
		"bufferView":27,
		"type":"VEC3",
		"componentType":5126,
		"count":88,
		"byteOffset":12,
		"min":[-1.0,
		-1.0,
		-1.0],
		"max":[1.0,
		0.0,
		1.0]
	},
	{
		"bufferView":27,
		"type":"VEC2",
		"componentType":5126,
		"count":88,
		"byteOffset":24,
		"min":[0.0,
		0.0],
		"max":[1.0,
		1.0]
	},
	{
		"bufferView":28,
		"type":"SCALAR",
		"componentType":5123,
		"count":24,
		"byteOffset":0,
		"min":[0],
		"max":[13]
	},
	{
		"bufferView":29,
		"type":"VEC3",
		"componentType":5126,
		"count":14,
		"byteOffset":0,
		"min":[-199.59169006347657,
		-2.1308534145355226,
		53.70003890991211],
		"max":[-197.03868103027345,
		0.7600118517875671,
		54.07435989379883]
	},
	{
		"bufferView":29,
		"type":"VEC3",
		"componentType":5126,
		"count":14,
		"byteOffset":12,
		"min":[-1.0,
		-1.0,
		0.0],
		"max":[1.0,
		0.0,
		0.0]
	},
	{
		"bufferView":29,
		"type":"VEC2",
		"componentType":5126,
		"count":14,
		"byteOffset":24,
		"min":[0.0,
		0.0],
		"max":[1.0,
		0.9980853796005249]
	},
	{
		"bufferView":30,
		"type":"SCALAR",
		"componentType":5123,
		"count":480,
		"byteOffset":0,
		"min":[0],
		"max":[207]
	},
	{
		"bufferView":31,
		"type":"VEC3",
		"componentType":5126,
		"count":208,
		"byteOffset":0,
		"min":[-363.7412109375,
		-2.1308629512786867,
		45.7572021484375],
		"max":[-192.15870666503907,
		6.536191463470459,
		91.30838775634766]
	},
	{
		"bufferView":31,
		"type":"VEC3",
		"componentType":5126,
		"count":208,
		"byteOffset":12,
		"min":[-1.0,
		-1.0,
		-1.0],
		"max":[1.0,
		1.0,
		1.0]
	},
	{
		"bufferView":31,
		"type":"VEC2",
		"componentType":5126,
		"count":208,
		"byteOffset":24,
		"min":[0.0,
		0.0],
		"max":[1.0,
		1.0]
	}],
	"bufferViews":[{
		"buffer":0,
		"byteOffset":0,
		"byteLength":72,
		"target":34963
	},
	{
		"buffer":0,
		"byteOffset":72,
		"byteLength":768,
		"target":34962,
		"byteStride":32
	},
	{
		"buffer":1,
		"byteOffset":0,
		"byteLength":72,
		"target":34963
	},
	{
		"buffer":1,
		"byteOffset":72,
		"byteLength":768,
		"target":34962,
		"byteStride":32
	},
	{
		"buffer":2,
		"byteOffset":0,
		"byteLength":72,
		"target":34963
	},
	{
		"buffer":2,
		"byteOffset":72,
		"byteLength":768,
		"target":34962,
		"byteStride":32
	},
	{
		"buffer":3,
		"byteOffset":0,
		"byteLength":72,
		"target":34963
	},
	{
		"buffer":3,
		"byteOffset":72,
		"byteLength":768,
		"target":34962,
		"byteStride":32
	},
	{
		"buffer":4,
		"byteOffset":0,
		"byteLength":72,
		"target":34963
	},
	{
		"buffer":4,
		"byteOffset":72,
		"byteLength":768,
		"target":34962,
		"byteStride":32
	},
	{
		"buffer":5,
		"byteOffset":0,
		"byteLength":72,
		"target":34963
	},
	{
		"buffer":5,
		"byteOffset":72,
		"byteLength":768,
		"target":34962,
		"byteStride":32
	},
	{
		"buffer":6,
		"byteOffset":0,
		"byteLength":72,
		"target":34963
	},
	{
		"buffer":6,
		"byteOffset":72,
		"byteLength":576,
		"target":34962,
		"byteStride":32
	},
	{
		"buffer":7,
		"byteOffset":0,
		"byteLength":156,
		"target":34963
	},
	{
		"buffer":7,
		"byteOffset":156,
		"byteLength":1216,
		"target":34962,
		"byteStride":32
	},
	{
		"buffer":8,
		"byteOffset":0,
		"byteLength":768,
		"target":34963
	},
	{
		"buffer":8,
		"byteOffset":768,
		"byteLength":5216,
		"target":34962,
		"byteStride":32
	},
	{
		"buffer":9,
		"byteOffset":0,
		"byteLength":72,
		"target":34963
	},
	{
		"buffer":9,
		"byteOffset":72,
		"byteLength":768,
		"target":34962,
		"byteStride":32
	},
	{
		"buffer":10,
		"byteOffset":0,
		"byteLength":144,
		"target":34963
	},
	{
		"buffer":10,
		"byteOffset":144,
		"byteLength":1536,
		"target":34962,
		"byteStride":32
	},
	{
		"buffer":11,
		"byteOffset":0,
		"byteLength":2268,
		"target":34963
	},
	{
		"buffer":11,
		"byteOffset":2268,
		"byteLength":24192,
		"target":34962,
		"byteStride":32
	},
	{
		"buffer":12,
		"byteOffset":0,
		"byteLength":648,
		"target":34963
	},
	{
		"buffer":12,
		"byteOffset":648,
		"byteLength":6912,
		"target":34962,
		"byteStride":32
	},
	{
		"buffer":13,
		"byteOffset":0,
		"byteLength":312,
		"target":34963
	},
	{
		"buffer":13,
		"byteOffset":312,
		"byteLength":2816,
		"target":34962,
		"byteStride":32
	},
	{
		"buffer":14,
		"byteOffset":0,
		"byteLength":48,
		"target":34963
	},
	{
		"buffer":14,
		"byteOffset":48,
		"byteLength":448,
		"target":34962,
		"byteStride":32
	},
	{
		"buffer":15,
		"byteOffset":0,
		"byteLength":960,
		"target":34963
	},
	{
		"buffer":15,
		"byteOffset":960,
		"byteLength":6656,
		"target":34962,
		"byteStride":32
	}],
	"buffers":[{
		"uri":"data:application/octet-stream;base64,",
		"byteLength":840
	},
	{
		"uri":"data:application/octet-stream;base64,",
		"byteLength":840
	},
	{
		"uri":"data:application/octet-stream;base64,",
		"byteLength":840
	},
	{
		"uri":"data:application/octet-stream;base64,",
		"byteLength":840
	},
	{
		"uri":"data:application/octet-stream;base64,",
		"byteLength":840
	},
	{
		"uri":"data:application/octet-stream;base64,",
		"byteLength":840
	},
	{
		"uri":"data:application/octet-stream;base64,",
		"byteLength":648
	},
	{
		"uri":"data:application/octet-stream;base64,",
		"byteLength":1372
	},
	{
		"uri":"data:application/octet-stream;base64,",
		"byteLength":5984
	},
	{
		"uri":"data:application/octet-stream;base64,",
		"byteLength":840
	},
	{
		"uri":"data:application/octet-stream;base64,",
		"byteLength":1680
	},
	{
		"uri":"data:application/octet-stream;base64,",
		"byteLength":26460
	},
	{
		"uri":"data:application/octet-stream;base64,",
		"byteLength":7560
	},
	{
		"uri":"data:application/octet-stream;base64,",
		"byteLength":3128
	},
	{
		"uri":"data:application/octet-stream;base64,",
		"byteLength":496
	},
	{
		"uri":"data:application/octet-stream;base64,",
		"byteLength":7616
	}]
}